<svg version="1.2" xmlns="http://www.w3.org/2000/svg" viewBox="0 0 800 800" width="800" height="800">
	<title>Proyecto nuevo</title>
	<style>
		.s0 { fill: #ffffff } 
	</style>
	<path id="Tres en raya" class="s0" aria-label="Tres en raya"  d="m222 358.1v8.4h-19.3v53.5h-10.1v-53.5h-19.3v-8.4zm6 20.4l0.6 5.8q2-4.2 5-6.6 2.9-2.4 7-2.4 1.4 0 2.6 0.4 1.3 0.3 2.3 0.9l-0.7 7q-0.1 0.7-0.5 1-0.4 0.3-1 0.3-0.6 0-1.8-0.2-1.2-0.3-2.6-0.3-1.9 0-3.4 0.6-1.5 0.5-2.7 1.6-1.1 1.1-2 2.6-0.9 1.6-1.7 3.5v27.3h-9.3v-43.9h5.4q1.5 0 2 0.6 0.6 0.5 0.8 1.8zm29 14.6h21.8q0-2.3-0.7-4.3-0.6-2-1.9-3.5-1.3-1.5-3.2-2.3-1.9-0.8-4.4-0.8-5 0-7.9 2.8-2.9 2.9-3.7 8.1zm27.9 5.7h-28.1q0.1 3.7 1.1 6.5 1 2.7 2.7 4.5 1.6 1.8 3.9 2.7 2.3 0.9 5.2 0.9 2.7 0 4.7-0.6 1.9-0.7 3.4-1.4 1.5-0.8 2.5-1.4 1-0.6 1.9-0.6 1.1 0 1.7 0.8l2.6 3.4q-1.6 2-3.7 3.3-2 1.3-4.4 2.2-2.3 0.8-4.7 1.2-2.5 0.3-4.8 0.3-4.6 0-8.5-1.5-3.8-1.5-6.7-4.5-2.9-2.9-4.5-7.3-1.6-4.4-1.6-10.1 0-4.6 1.4-8.5 1.5-4 4.2-6.9 2.7-3 6.5-4.6 3.9-1.7 8.7-1.7 4.1 0 7.5 1.3 3.5 1.3 5.9 3.8 2.5 2.5 3.9 6.2 1.4 3.7 1.4 8.4 0 2.1-0.4 2.9-0.5 0.7-1.8 0.7zm39.1-18.1l-2.1 3.4q-0.3 0.6-0.8 0.9-0.4 0.2-1 0.2-0.8 0-1.6-0.4-0.9-0.5-2-1-1.2-0.6-2.8-1-1.5-0.5-3.6-0.5-1.8 0-3.2 0.4-1.4 0.4-2.4 1.2-0.9 0.7-1.4 1.7-0.5 1-0.5 2.2 0 1.5 0.9 2.6 1 1 2.5 1.8 1.6 0.7 3.5 1.3 2 0.6 4.1 1.3 2 0.7 4 1.6 2 0.9 3.5 2.2 1.6 1.3 2.5 3.2 1 1.9 1 4.5 0 3.1-1.1 5.7-1.1 2.7-3.3 4.6-2.1 1.9-5.4 3-3.2 1.1-7.3 1.1-2.3 0-4.4-0.4-2.1-0.4-4.1-1.1-1.8-0.7-3.5-1.7-1.7-1-2.9-2.2l2.1-3.5q0.4-0.7 0.9-1 0.7-0.4 1.5-0.4 0.9 0 1.8 0.6 0.9 0.6 2 1.3 1.2 0.6 2.9 1.2 1.7 0.6 4.2 0.6 2.1 0 3.6-0.5 1.5-0.5 2.5-1.3 0.9-0.9 1.4-2 0.5-1.1 0.5-2.3 0-1.7-1-2.8-0.9-1.1-2.5-1.8-1.5-0.8-3.6-1.4-1.9-0.6-4-1.3-2.1-0.7-4.1-1.6-2-0.9-3.6-2.3-1.5-1.4-2.5-3.4-0.9-2-0.9-4.9 0-2.6 1-5 1.1-2.3 3.1-4.1 2.1-1.8 5.1-2.9 3-1 6.9-1 4.4 0 8 1.4 3.6 1.4 6.1 3.8zm37.7 12.4h21.8q0-2.3-0.7-4.3-0.7-2-2-3.5-1.3-1.5-3.2-2.3-1.9-0.8-4.4-0.8-5 0-7.9 2.8-2.9 2.9-3.6 8.1zm27.9 5.7h-28.2q0.2 3.7 1.2 6.5 0.9 2.7 2.6 4.5 1.7 1.8 3.9 2.7 2.4 0.9 5.2 0.9 2.7 0 4.7-0.6 2-0.7 3.4-1.4 1.5-0.8 2.5-1.4 1-0.6 1.9-0.6 1.1 0 1.7 0.8l2.7 3.4q-1.7 2-3.7 3.3-2.1 1.3-4.4 2.2-2.4 0.8-4.8 1.2-2.5 0.3-4.8 0.3-4.5 0-8.4-1.5-3.9-1.5-6.8-4.5-2.8-2.9-4.5-7.3-1.6-4.4-1.6-10.1 0-4.6 1.5-8.5 1.4-4 4.1-6.9 2.7-3 6.5-4.6 3.9-1.7 8.7-1.7 4.1 0 7.5 1.3 3.5 1.3 6 3.8 2.5 2.5 3.8 6.2 1.5 3.7 1.5 8.4 0 2.1-0.5 2.9-0.5 0.7-1.7 0.7zm18.8-20.9l0.6 4q1.4-1.4 2.9-2.6 1.6-1.2 3.3-2 1.7-0.9 3.6-1.4 2-0.4 4.3-0.4 3.6 0 6.3 1.2 2.7 1.2 4.6 3.4 1.9 2.1 2.8 5.2 1 3.1 1 6.8v27.9h-9.2v-27.9q0-4.4-2.1-6.9-2-2.4-6.2-2.4-3.1 0-5.8 1.4-2.6 1.4-4.9 3.9v31.9h-9.2v-43.9h5.5q1.9 0 2.5 1.8zm69.8 0.6l0.5 5.8q2.1-4.2 5-6.6 3-2.4 7-2.4 1.5 0 2.7 0.4 1.3 0.3 2.2 0.9l-0.6 7q-0.2 0.7-0.6 1-0.3 0.3-0.9 0.3-0.7 0-1.9-0.2-1.2-0.3-2.5-0.3-1.9 0-3.4 0.6-1.5 0.5-2.7 1.6-1.2 1.1-2.1 2.6-0.9 1.6-1.6 3.5v27.3h-9.3v-43.9h5.4q1.5 0 2 0.6 0.6 0.5 0.8 1.8zm46.3 30.4v-8.1q-4.9 0.2-8.3 0.8-3.4 0.6-5.5 1.6-2.1 1-3.1 2.3-0.9 1.3-0.9 2.9 0 1.6 0.5 2.7 0.5 1.1 1.4 1.8 0.9 0.7 2 1 1.3 0.3 2.7 0.3 3.6 0 6.2-1.3 2.6-1.4 5-4zm-22.8-23.6l-1.7-3.1q7.5-6.9 17.7-6.9 3.8 0 6.8 1.3 2.9 1.2 4.9 3.4 2 2.2 3 5.3 1.1 3.1 1.1 6.8v27.9h-4.1q-1.3 0-2-0.4-0.7-0.4-1.2-1.7l-0.9-3.5q-1.7 1.5-3.3 2.7-1.6 1.1-3.4 2-1.7 0.8-3.7 1.2-2 0.4-4.4 0.4-2.7 0-5-0.7-2.3-0.8-4-2.2-1.6-1.5-2.6-3.7-1-2.2-1-5.2 0-2.5 1.4-4.9 1.3-2.4 4.4-4.3 3.2-2 8.2-3.2 5.2-1.3 12.6-1.4v-3q0-4.7-2-7-2-2.3-5.9-2.3-2.7 0-4.5 0.6-1.8 0.7-3.1 1.5-1.4 0.7-2.4 1.4-1 0.7-2.2 0.7-0.9 0-1.6-0.5-0.7-0.5-1.1-1.2zm73-9.2h7.4l-24.2 56.4q-0.5 1-1.2 1.5-0.6 0.6-2 0.6h-6.8l8.1-17.6-17.9-40.9h8q1.2 0 1.8 0.6 0.6 0.5 0.9 1.2l10.5 24.9q0.4 1.1 0.7 2.2 0.3 1 0.6 2.1 0.4-1.1 0.7-2.2 0.3-1 0.8-2.1l10-24.9q0.3-0.7 1-1.2 0.7-0.6 1.6-0.6zm35.9 32.8v-8.1q-5 0.2-8.4 0.8-3.4 0.6-5.5 1.6-2.1 1-3 2.3-0.9 1.3-0.9 2.9 0 1.6 0.5 2.7 0.5 1.1 1.3 1.8 0.9 0.7 2.1 1 1.2 0.3 2.6 0.3 3.6 0 6.2-1.3 2.6-1.4 5.1-4zm-22.9-23.6l-1.6-3.1q7.4-6.9 17.7-6.9 3.8 0 6.7 1.3 3 1.2 4.9 3.4 2.1 2.2 3.1 5.3 1.1 3.1 1.1 6.8v27.9h-4.2q-1.3 0-2-0.4-0.7-0.4-1.1-1.7l-0.9-3.5q-1.7 1.5-3.4 2.7-1.6 1.1-3.4 2-1.7 0.8-3.7 1.2-2 0.4-4.4 0.4-2.6 0-5-0.7-2.2-0.8-3.9-2.2-1.7-1.5-2.7-3.7-0.9-2.2-0.9-5.2 0-2.5 1.3-4.9 1.4-2.4 4.5-4.3 3.1-2 8.2-3.2 5.1-1.3 12.6-1.4v-3q0-4.7-2-7-2.1-2.3-6-2.3-2.6 0-4.4 0.6-1.9 0.7-3.2 1.5-1.3 0.7-2.4 1.4-1 0.7-2.1 0.7-1 0-1.7-0.5-0.6-0.5-1.1-1.2z"/>
</svg>